<?xml version="1.0" encoding="UTF-8"?>
<!DOCTYPE svg PUBLIC "-//W3C//DTD SVG 1.1//EN" "http://www.w3.org/Graphics/SVG/1.1/DTD/svg11.dtd">
<!-- Creator: CorelDRAW 2017 -->
<svg xmlns="http://www.w3.org/2000/svg" xml:space="preserve" width="143mm" height="143mm" version="1.1" style="shape-rendering:geometricPrecision; text-rendering:geometricPrecision; image-rendering:optimizeQuality; fill-rule:evenodd; clip-rule:evenodd"
viewBox="0 0 14300 14300"
 xmlns:xlink="http://www.w3.org/1999/xlink">
 <defs>
  <style type="text/css">
   <![CDATA[
    .str1 {stroke:black;stroke-width:20}
    .str0 {stroke:black;stroke-width:100;stroke-linecap:round;stroke-linejoin:round}
    .fil9 {fill:none}
    .fil10 {fill:black}
    .fil3 {fill:#4D4D4D}
    .fil7 {fill:#52C6CE}
    .fil0 {fill:#7BAD52}
    .fil1 {fill:gray}
    .fil6 {fill:#9786B8}
    .fil11 {fill:#CCCCCC}
    .fil8 {fill:#F76384}
    .fil4 {fill:#FF6161}
    .fil5 {fill:#FFD663}
    .fil2 {fill:white}
   ]]>
  </style>
 </defs>
 <g id="Слой_x0020_1">
  <metadata id="CorelCorpID_0Corel-Layer"/>
  <path class="fil0" d="M8647 11600c272,10 642,22 937,67 295,45 515,122 584,243 69,121 -12,285 -88,412 -75,127 -144,217 -100,294 44,77 200,140 391,170 191,30 417,26 618,37 201,11 378,37 433,136 55,99 -13,270 -971,350 -958,81 -2807,70 -4180,70 -1373,-1 -2269,9 -2742,-27 -473,-36 -524,-116 -533,-227 -9,-111 24,-252 -56,-354 -80,-102 -271,-165 -537,-208 -265,-43 -605,-66 -857,-173 -252,-106 -418,-295 -400,-429 19,-133 222,-211 853,-260 631,-49 1689,-68 2765,-84 1076,-16 2169,-29 2803,-32 634,-3 808,4 1080,14z"/>
  <path class="fil1" d="M5927 1441c375,0 1065,0 1542,0 477,0 743,0 932,44 189,44 303,131 379,315 76,184 114,464 125,1817 11,1353 -4,3778 -19,5263 -15,1485 -30,2031 -53,2379 -23,349 -53,500 -163,610 -110,110 -299,178 -481,205 -182,27 -356,11 -1273,4 -917,-8 -2576,-8 -3482,-19 -906,-11 -1057,-34 -1182,-102 -125,-68 -224,-182 -273,-826 -49,-644 -49,-1819 -49,-3281 0,-1463 0,-3213 4,-4259 4,-1046 11,-1387 72,-1627 61,-241 174,-381 375,-451 201,-70 489,-70 921,-70 432,0 1008,0 1387,0 379,0 561,0 682,0 121,0 182,0 557,0z"/>
  <path class="fil2" d="M7901 2673c121,0 235,4 314,23 80,19 125,53 146,248 21,195 17,551 13,1858 -4,1307 -8,3565 -9,4731 -2,1165 -2,1237 -63,1284 -61,47 -182,70 -1097,76 -915,6 -2624,-6 -3537,-19 -913,-13 -1031,-28 -1101,-70 -70,-42 -93,-110 -102,-676 -9,-566 -6,-1631 -4,-2900 2,-1269 2,-2743 11,-3520 9,-777 28,-856 68,-909 40,-53 100,-80 326,-95 225,-15 616,-19 1419,-21 803,-2 2020,-2 2692,-4 673,-2 801,-6 923,-6z"/>
  <path class="fil3" d="M5847 2058c157,3 224,5 276,18 52,14 89,39 107,72 18,33 16,75 -8,109 -23,34 -68,60 -231,69 -163,9 -444,2 -669,1 -224,-2 -392,2 -499,-5 -107,-8 -153,-27 -177,-59 -24,-32 -25,-77 -12,-109 13,-32 41,-52 81,-66 40,-13 91,-21 173,-26 82,-5 196,-9 376,-10 180,0 426,2 583,5z"/>
  <path class="fil4" d="M4287 2685c-803,2 -1194,6 -1419,21 -225,15 -286,42 -326,95 -40,53 -59,132 -68,905l5544 0 360 0c0,-449 -3,-636 -16,-759 -21,-195 -66,-229 -146,-248 -53,-13 -122,-19 -198,-21 -37,-1 -76,-2 -116,-2 -121,0 -250,4 -923,6 -673,2 -1889,2 -2692,4z"/>
  <path class="fil5" d="M2464 5711l2227 0c3,-647 6,-1326 9,-2005l-2227 0c0,1 0,1 0,2 -6,476 -8,1212 -9,2004z"/>
  <path class="fil6" d="M4692 5711l-2227 0c-1,501 -1,1024 -2,1516 0,197 -1,389 -1,575 761,0 1523,0 2220,0 3,-618 7,-1333 11,-2091z"/>
  <path class="fil7" d="M4681 7802c-697,0 -1459,0 -2220,0 -1,825 -3,1531 1,2023l2204 8c4,-412 8,-889 12,-1504 1,-167 2,-343 3,-528z"/>
  <path class="fil8" d="M4667 9834l-2204 -8c1,112 2,213 4,302 9,566 32,635 102,676 70,42 188,57 1101,70 272,4 615,8 987,11 4,-330 7,-661 11,-1051z"/>
  <path class="fil9 str0" d="M5130 4219c60,-57 120,-114 142,-116 22,-2 7,51 9,92 2,40 21,68 60,57 39,-11 99,-61 128,-68 29,-6 26,31 40,45 14,13 46,2 105,-38 59,-40 147,-109 205,-149 58,-39 87,-49 85,-2 -2,47 -34,151 -10,193 24,42 104,22 166,-4 62,-27 107,-60 149,-58 42,2 83,40 144,27 62,-13 145,-77 208,-88 63,-10 106,33 158,42 52,9 114,-15 167,-26 53,-11 97,-8 134,-6 37,1 67,1 107,-15 40,-17 91,-50 123,-52 32,-3 44,25 57,52"/>
  <path class="fil9 str0" d="M5112 6107c173,-71 345,-143 463,-142 118,1 183,74 285,75 102,2 242,-68 329,-77 87,-9 121,41 171,39 51,-2 118,-57 176,-61 58,-4 107,43 177,55 70,12 162,-12 224,-1 62,11 93,56 123,50 30,-6 59,-63 89,-81 29,-17 59,6 111,12 52,6 127,-5 170,-9 42,-4 52,0 71,7 19,7 47,17 79,28 32,12 68,24 104,37"/>
  <path class="fil9 str0" d="M5108 8213c207,-78 414,-156 545,-166 130,-10 184,49 250,60 66,11 144,-26 208,-22 65,3 116,47 173,87 56,40 117,76 203,71 86,-5 197,-50 276,-54 79,-4 125,35 162,32 37,-3 66,-47 99,-56 33,-9 71,18 105,14 34,-4 65,-38 110,-37 45,1 104,39 172,20 68,-19 146,-93 199,-112 53,-19 82,17 99,44 16,27 19,44 26,49 6,5 16,-3 48,-15 31,-12 85,-28 138,-44"/>
  <path class="fil9 str0" d="M4966 10389c83,-83 166,-165 212,-184 46,-19 54,26 109,34 55,9 155,-19 221,-33 66,-14 96,-13 132,11 36,24 77,71 171,70 95,-2 244,-53 316,-52 72,2 67,56 124,52 57,-4 175,-66 271,-94 96,-28 171,-20 216,-3 45,17 59,44 87,51 27,7 68,-6 116,15 48,21 105,77 169,77 64,0 137,-55 186,-70 49,-15 76,11 113,7 37,-4 85,-38 135,-50 50,-11 103,1 161,5 58,5 120,3 152,2 31,-1 31,-1 31,-1"/>
  <path class="fil9 str0" d="M7098 6654c-93,-51 -186,-103 -268,-110 -82,-8 -154,28 -208,40 -54,12 -91,0 -150,-17 -59,-17 -139,-38 -198,-37 -59,1 -96,25 -137,18 -41,-7 -87,-44 -118,-32 -31,12 -47,73 -91,84 -44,11 -115,-29 -170,-31 -56,-2 -95,33 -132,40 -37,7 -71,-14 -104,-44 -34,-30 -68,-69 -100,-67 -33,2 -64,45 -100,58 -36,13 -77,-3 -113,-23 -36,-20 -66,-43 -96,-66"/>
  <path class="fil10 str1" d="M12564 10098c-43,-118 -88,-300 -141,-543 -53,-243 -115,-546 -298,-908 -183,-362 -489,-782 -696,-1064 -208,-281 -318,-424 -439,-527 -122,-103 -255,-167 -373,-180 -117,-14 -219,23 -278,91 -59,68 -74,167 -55,261 19,94 73,182 92,219 19,38 4,25 -71,-59 -75,-84 -211,-240 -346,-335 -136,-95 -271,-128 -385,-108 -114,20 -208,94 -238,190 -31,97 1,216 41,323 39,106 87,199 67,198 -19,-2 -106,-98 -183,-172 -77,-74 -145,-127 -225,-136 -80,-9 -173,25 -239,77 -66,52 -105,121 -100,221 5,99 55,229 93,317 38,88 65,135 -22,41 -87,-93 -286,-327 -514,-567 -228,-240 -485,-486 -675,-645 -190,-159 -314,-230 -424,-257 -110,-27 -205,-9 -246,42 -40,51 -26,136 132,379 157,243 457,643 750,1008 293,365 578,695 822,964 243,269 444,478 481,554 37,77 -89,22 -244,-15 -155,-37 -337,-58 -490,-46 -152,12 -275,55 -389,131 -115,76 -222,184 -287,277 -65,92 -89,169 -86,248 3,80 32,163 60,206 28,43 56,45 134,22 78,-23 207,-71 327,-98 120,-27 230,-32 367,-7 137,25 300,80 466,184 165,104 332,256 468,366 136,110 241,177 471,333 230,156 585,402 970,729 385,326 799,733 1296,686 497,-47 1077,-547 1180,-985 103,-438 -271,-814 -479,-1028 -208,-215 -250,-268 -294,-386z"/>
  <path class="fil11" d="M6535 1579c-804,1 -2223,-1 -3029,12 -806,13 -1000,41 -1131,100 -131,59 -198,149 -235,346 -37,198 -44,503 -53,985 -9,483 -19,1142 11,1075 30,-67 101,-861 215,-1349 115,-489 273,-672 459,-785 185,-113 397,-155 866,-177 469,-22 1196,-24 1859,-30 663,-6 1263,-17 1625,-33 362,-16 485,-37 545,-63 60,-26 56,-58 -41,-72 -97,-14 -288,-11 -1092,-10z"/>
 </g>
</svg>
