<?xml version="1.0" encoding="UTF-8"?>
<!DOCTYPE svg PUBLIC "-//W3C//DTD SVG 1.1//EN" "http://www.w3.org/Graphics/SVG/1.1/DTD/svg11.dtd">
<!-- Creator: CorelDRAW 2017 -->
<svg xmlns="http://www.w3.org/2000/svg" xml:space="preserve" width="143mm" height="143mm" version="1.1" style="shape-rendering:geometricPrecision; text-rendering:geometricPrecision; image-rendering:optimizeQuality; fill-rule:evenodd; clip-rule:evenodd"
viewBox="0 0 14300 14300"
 xmlns:xlink="http://www.w3.org/1999/xlink">
 <defs>
  <style type="text/css">
   <![CDATA[
    .str0 {stroke:black;stroke-width:250;stroke-dasharray:500.000000 250.000000}
    .fil1 {fill:none}
    .fil3 {fill:#0069E1}
    .fil9 {fill:#2BABE4}
    .fil6 {fill:#5ACEF7}
    .fil5 {fill:#7BAD52}
    .fil7 {fill:#967EC7}
    .fil0 {fill:#A3313C}
    .fil10 {fill:#A5D673}
    .fil11 {fill:#D2C3F0}
    .fil4 {fill:#FFD663}
    .fil8 {fill:#FFFFCC}
    .fil2 {fill:white}
   ]]>
  </style>
 </defs>
 <g id="Слой_x0020_1">
  <metadata id="CorelCorpID_0Corel-Layer"/>
  <path class="fil0" d="M11056 1315c272,231 520,712 542,1208 22,495 -182,1005 -554,1475 -372,470 -911,900 -1235,1242 -324,342 -434,597 -310,820 124,222 481,412 863,466 383,55 791,-25 1188,-73 397,-47 783,-62 1107,106 324,168 587,517 707,929 120,412 98,885 -22,1308 -120,423 -339,794 -707,1002 -368,208 -885,251 -1384,164 -499,-87 -980,-306 -1297,-404 -317,-98 -470,-77 -441,182 29,259 240,754 398,1146 157,392 260,681 227,976 -33,295 -201,597 -453,702 -252,105 -587,14 -889,-255 -302,-270 -572,-718 -863,-1113 -291,-395 -605,-738 -980,-865 -375,-128 -812,-40 -1257,186 -444,226 -896,590 -1337,873 -441,283 -871,484 -1317,584 -446,100 -909,99 -1165,-122 -256,-221 -306,-663 -173,-1095 133,-432 448,-853 694,-1261 245,-407 420,-801 595,-1165 175,-364 350,-699 419,-1067 69,-368 33,-769 -146,-1184 -179,-415 -499,-845 -753,-1239 -254,-394 -442,-753 -614,-1054 -172,-302 -329,-546 -384,-982 -56,-436 -10,-1065 215,-1423 225,-358 630,-445 1129,-227 499,219 1093,743 1564,1155 472,412 821,710 1248,936 426,226 929,379 1399,299 470,-80 907,-393 1289,-767 381,-374 707,-808 1003,-1094 296,-286 563,-424 845,-502 282,-78 578,-96 850,136z"/>
  <path class="fil1 str0" d="M10303 2318c-1174,1615 -2349,3231 -2845,4025 -496,794 -315,767 89,889 404,122 1031,394 1751,608 720,214 1533,371 2070,473 537,101 799,146 1061,191"/>
  <path class="fil1 str0" d="M9331 12432c-382,-831 -763,-1661 -1175,-2522 -412,-861 -853,-1751 -1111,-2163 -258,-412 -333,-344 -823,116 -490,460 -1396,1313 -2058,1942 -663,628 -1082,1032 -1322,1282 -239,251 -299,349 -358,447"/>
  <path class="fil1 str0" d="M2910 2689c1034,1257 2069,2514 2720,3255 651,741 919,965 1187,1190"/>
  <path class="fil2" d="M4926 6794c-24,-146 -20,-420 -20,-638 0,-218 -4,-379 20,-462 24,-83 76,-87 185,-89 109,-2 274,-2 429,0 155,2 298,7 399,-13 100,-20 157,-63 148,-109 -9,-46 -83,-94 -129,-181 -46,-87 -63,-213 -65,-338 -2,-124 11,-246 74,-348 63,-102 176,-185 333,-237 157,-52 357,-74 525,-41 168,33 303,120 383,233 81,113 107,253 96,390 -11,137 -59,272 -115,364 -57,91 -122,139 -142,183 -20,44 7,83 89,109 83,26 222,39 403,50 181,11 403,20 514,43 111,24 111,63 113,233 2,170 7,470 7,682 0,211 -4,333 26,375 30,41 96,2 172,-50 76,-52 163,-118 285,-137 122,-20 279,7 407,72 128,65 229,170 292,325 63,155 89,359 2,527 -87,168 -287,298 -455,355 -168,57 -303,39 -414,4 -111,-35 -198,-87 -266,-98 -68,-11 -115,20 -133,155 -17,135 -4,375 9,592 13,218 26,414 -20,503 -46,89 -150,72 -314,61 -163,-11 -386,-15 -525,-17 -139,-2 -196,-2 -211,-59 -15,-57 11,-170 50,-285 39,-115 92,-233 24,-372 -68,-139 -255,-300 -438,-362 -183,-61 -362,-22 -483,52 -122,74 -187,183 -224,314 -37,131 -46,283 -26,407 20,124 67,220 44,272 -24,52 -120,61 -240,67 -120,7 -264,11 -414,15 -150,4 -307,9 -396,-15 -89,-24 -111,-76 -118,-211 -7,-135 2,-353 13,-536 11,-183 24,-331 68,-425 44,-94 118,-133 194,-139 76,-7 155,20 253,22 98,2 216,-20 324,-89 109,-70 209,-187 268,-331 59,-144 76,-314 22,-460 -55,-146 -181,-268 -327,-327 -146,-59 -311,-54 -409,-20 -98,35 -129,100 -170,124 -41,24 -94,7 -118,-139z"/>
  <path class="fil3" d="M9269 2005c6,-65 38,-183 62,-276 24,-93 40,-163 59,-196 19,-33 42,-29 89,-18 47,11 118,29 184,47 66,18 127,36 173,38 45,3 74,-10 76,-30 1,-21 -25,-49 -35,-92 -10,-42 -4,-99 9,-152 13,-54 32,-104 70,-141 38,-37 96,-60 169,-65 73,-5 161,8 230,40 68,33 117,85 139,142 22,58 18,120 -2,178 -20,58 -55,110 -90,143 -34,33 -68,46 -81,63 -13,17 -6,36 26,57 33,20 91,41 167,66 76,25 171,53 216,75 45,23 41,39 23,113 -18,73 -49,203 -72,293 -23,91 -39,143 -30,164 9,21 41,12 79,-3 38,-14 83,-32 138,-27 54,5 119,34 167,76 48,42 79,98 90,172 10,73 -1,164 -57,226 -56,62 -156,96 -235,102 -78,6 -134,-17 -178,-44 -44,-27 -76,-59 -103,-71 -28,-12 -52,-4 -74,52 -22,56 -43,160 -62,255 -18,95 -34,181 -64,214 -29,33 -72,14 -141,-8 -69,-23 -164,-49 -223,-65 -60,-16 -84,-23 -84,-49 0,-26 23,-72 53,-117 30,-45 65,-90 51,-157 -14,-67 -76,-157 -148,-203 -72,-46 -153,-49 -213,-31 -61,18 -101,58 -131,110 -30,52 -51,117 -56,172 -5,55 5,102 -11,122 -16,20 -58,13 -110,3 -52,-10 -114,-24 -179,-39 -65,-15 -133,-30 -168,-50 -36,-20 -39,-45 -27,-104 12,-59 40,-151 65,-229 25,-77 47,-139 76,-175 29,-35 65,-44 99,-38 33,6 64,25 106,37 42,12 95,15 149,-3 54,-18 110,-57 151,-113 41,-55 67,-126 60,-195 -7,-69 -48,-135 -104,-176 -56,-41 -128,-58 -174,-54 -46,4 -66,29 -87,35 -20,6 -41,-8 -35,-73z"/>
  <path class="fil4" d="M3403 3910c-70,63 -217,155 -333,230 -116,75 -201,133 -253,149 -52,16 -73,-11 -111,-68 -39,-57 -96,-145 -148,-229 -52,-83 -99,-161 -144,-208 -45,-47 -88,-62 -109,-42 -21,20 -21,76 -52,131 -31,54 -92,107 -157,151 -65,44 -135,79 -211,81 -76,2 -159,-30 -241,-96 -82,-66 -163,-165 -203,-266 -40,-101 -40,-203 -8,-285 33,-82 98,-144 175,-185 77,-42 165,-62 234,-64 68,-1 116,17 146,12 30,-5 42,-32 27,-85 -15,-53 -56,-132 -112,-232 -57,-100 -128,-222 -154,-289 -25,-67 -5,-81 85,-141 90,-60 249,-166 361,-238 113,-73 179,-113 191,-143 12,-30 -32,-52 -86,-74 -54,-23 -119,-47 -171,-105 -52,-58 -93,-151 -102,-242 -9,-91 12,-181 72,-267 61,-87 161,-171 280,-183 119,-11 258,50 346,120 88,70 125,148 145,219 20,71 22,136 39,175 18,40 50,55 128,18 78,-37 201,-127 313,-209 112,-82 212,-157 275,-163 63,-6 90,55 141,146 51,91 125,211 172,286 47,75 66,105 41,133 -25,28 -94,53 -169,72 -75,19 -156,32 -207,116 -51,84 -72,239 -42,358 31,119 113,200 194,240 82,40 162,37 245,12 82,-25 167,-73 226,-126 59,-53 94,-112 130,-117 36,-5 74,43 119,104 45,62 97,137 151,215 54,79 110,161 128,217 18,56 -2,85 -72,135 -70,50 -189,120 -290,178 -101,57 -185,101 -250,110 -65,9 -111,-17 -141,-55 -30,-38 -43,-89 -76,-142 -33,-53 -85,-108 -159,-142 -75,-34 -172,-47 -269,-29 -97,18 -193,67 -253,147 -59,79 -80,189 -62,287 19,98 78,185 131,225 52,40 98,34 125,48 27,14 36,48 -34,111z"/>
  <path class="fil5" d="M11036 7736c25,-90 102,-247 160,-372 59,-125 99,-219 135,-260 36,-41 67,-30 130,-2 63,28 158,73 247,115 88,43 170,84 233,100 63,16 107,6 114,-23 7,-29 -22,-76 -25,-139 -3,-62 21,-140 53,-212 32,-72 72,-139 136,-181 64,-42 151,-59 255,-47 104,12 225,53 313,117 88,64 142,150 158,237 16,87 -7,174 -50,250 -43,76 -107,141 -164,178 -57,37 -108,47 -131,67 -23,20 -19,49 22,87 41,37 117,82 218,137 101,55 226,120 284,163 57,44 47,66 2,165 -44,98 -123,272 -180,394 -57,122 -92,190 -86,222 6,32 54,27 112,17 58,-10 126,-24 201,-2 75,22 159,79 215,151 56,72 86,159 81,265 -5,106 -45,231 -141,304 -95,73 -246,94 -357,82 -112,-12 -185,-59 -239,-109 -55,-50 -91,-103 -127,-128 -36,-24 -72,-20 -118,53 -46,73 -103,214 -154,343 -51,129 -96,245 -147,284 -50,39 -106,1 -197,-49 -91,-50 -218,-112 -297,-151 -80,-39 -112,-54 -106,-91 6,-37 52,-95 106,-151 54,-56 115,-109 114,-208 -1,-98 -66,-241 -155,-326 -89,-84 -202,-110 -292,-100 -90,10 -157,55 -213,120 -56,65 -103,151 -125,227 -22,77 -20,145 -48,168 -28,24 -85,3 -156,-26 -71,-28 -155,-65 -242,-102 -88,-38 -179,-78 -224,-115 -45,-38 -43,-74 -11,-153 33,-79 96,-202 152,-305 55,-102 103,-184 153,-226 50,-42 103,-45 149,-28 46,17 84,53 139,80 56,28 129,47 211,36 81,-11 171,-51 243,-118 72,-67 128,-160 136,-258 8,-99 -32,-203 -100,-276 -68,-73 -164,-115 -230,-121 -66,-6 -101,23 -131,26 -30,3 -56,-21 -30,-112z"/>
  <path class="fil6" d="M9151 11351c50,-45 156,-111 240,-165 83,-54 144,-95 182,-107 38,-11 52,8 80,49 28,41 69,105 106,164 37,60 71,116 104,149 32,34 63,45 78,30 15,-15 15,-55 38,-94 22,-39 66,-77 113,-109 47,-32 97,-57 152,-58 55,-1 115,22 173,69 59,47 117,119 146,191 29,72 29,146 5,204 -23,59 -70,103 -126,133 -55,30 -119,45 -168,46 -49,1 -84,-12 -105,-9 -22,3 -30,23 -20,61 10,38 40,95 80,167 41,72 92,159 110,208 18,48 3,58 -61,101 -65,43 -179,119 -260,171 -81,52 -129,81 -137,103 -8,22 23,37 62,54 39,16 85,34 123,75 38,42 66,108 73,174 7,65 -9,130 -52,192 -44,62 -116,123 -201,131 -86,8 -185,-36 -249,-87 -63,-50 -90,-106 -104,-157 -14,-51 -16,-97 -28,-126 -13,-29 -36,-39 -92,-13 -56,27 -145,91 -225,150 -80,59 -152,112 -198,117 -46,5 -65,-40 -101,-105 -36,-65 -90,-151 -123,-205 -34,-54 -48,-76 -30,-96 18,-20 68,-38 122,-51 54,-14 112,-23 149,-83 37,-60 52,-172 30,-257 -22,-85 -81,-144 -140,-172 -59,-28 -116,-27 -176,-8 -59,18 -120,52 -163,91 -43,38 -68,80 -94,84 -26,4 -53,-31 -85,-75 -32,-44 -69,-98 -108,-155 -39,-57 -79,-116 -92,-156 -13,-40 2,-61 52,-97 50,-36 136,-86 209,-127 73,-41 133,-73 179,-79 47,-6 80,12 101,40 21,28 31,64 54,102 23,38 61,78 114,102 54,25 123,34 193,21 70,-13 139,-48 182,-105 42,-57 58,-136 44,-206 -14,-70 -56,-133 -94,-162 -38,-29 -70,-24 -90,-34 -19,-10 -26,-34 24,-80z"/>
  <path class="fil7" d="M3033 10413c-50,-78 -168,-205 -260,-307 -92,-102 -158,-179 -204,-208 -46,-29 -72,-9 -124,36 -52,45 -129,115 -201,181 -71,66 -137,129 -192,162 -55,33 -100,37 -115,12 -15,-25 -1,-79 -16,-139 -15,-60 -60,-126 -112,-185 -51,-59 -109,-110 -181,-132 -73,-21 -160,-12 -256,29 -95,42 -198,116 -263,202 -65,86 -91,183 -81,270 10,87 57,163 119,223 63,60 142,103 207,121 65,19 116,14 143,26 28,12 32,41 4,89 -28,47 -87,112 -167,193 -80,81 -180,179 -222,237 -42,58 -25,76 45,157 71,80 195,223 284,321 89,99 142,154 146,186 3,32 -44,41 -102,49 -58,8 -126,14 -191,56 -65,42 -128,120 -160,205 -33,85 -35,176 0,275 36,99 110,206 221,247 111,42 260,18 362,-26 102,-44 158,-109 195,-172 37,-63 56,-124 83,-158 27,-34 62,-39 127,16 65,56 160,173 245,281 86,107 162,205 221,227 59,22 101,-30 172,-104 72,-74 174,-169 238,-229 64,-60 91,-84 74,-117 -17,-33 -77,-75 -144,-112 -67,-37 -141,-70 -168,-164 -27,-94 -7,-248 52,-353 60,-106 160,-162 248,-179 88,-17 165,7 237,52 72,46 141,113 184,179 43,66 61,131 94,146 33,14 82,-22 140,-69 59,-47 128,-106 200,-167 72,-61 147,-125 179,-174 32,-49 20,-82 -34,-148 -54,-66 -150,-164 -232,-245 -82,-81 -151,-145 -210,-170 -60,-25 -111,-13 -149,16 -38,29 -64,74 -109,117 -45,42 -109,82 -189,95 -80,13 -177,1 -265,-42 -88,-42 -168,-115 -204,-206 -36,-91 -28,-201 15,-290 44,-89 123,-157 183,-182 61,-25 102,-7 132,-14 29,-6 47,-36 -4,-115z"/>
  <path class="fil8" d="M3128 1841c-212,120 -693,415 -952,571 -259,156 -295,172 -272,249 23,77 105,213 260,469 155,256 383,631 411,609 28,-22 -143,-441 -225,-704 -82,-263 -75,-371 87,-546 161,-175 476,-417 662,-566 186,-148 242,-203 30,-83z"/>
  <path class="fil9" d="M9910 1701c145,39 416,114 564,157 148,43 175,53 130,271 -45,218 -160,644 -202,700 -42,56 -10,-258 -3,-470 7,-212 -10,-322 -127,-422 -117,-100 -332,-189 -430,-233 -98,-44 -78,-42 67,-3z"/>
  <path class="fil10" d="M12128 7534c168,81 512,267 647,451 135,184 60,366 -62,630 -122,264 -291,610 -336,616 -45,6 35,-329 84,-577 49,-248 68,-408 -18,-586 -86,-178 -275,-373 -374,-482 -99,-109 -108,-133 59,-52z"/>
  <path class="fil2" d="M9844 11637c42,45 149,229 221,352 73,123 112,185 127,226 15,41 6,62 -124,149 -130,87 -380,239 -539,336 -159,97 -226,139 -175,81 51,-58 222,-215 342,-323 121,-108 192,-166 209,-271 17,-104 -21,-255 -51,-377 -30,-123 -53,-217 -11,-173z"/>
  <path class="fil11" d="M2258 10260c-116,104 -389,370 -586,562 -197,192 -317,311 -352,393 -35,82 16,128 191,308 175,180 474,495 648,670 174,175 223,209 115,43 -108,-167 -372,-535 -497,-757 -125,-222 -110,-298 -1,-475 109,-177 311,-453 433,-621 122,-168 164,-226 48,-122z"/>
 </g>
</svg>
