<?xml version="1.0" encoding="UTF-8"?>
<!DOCTYPE svg PUBLIC "-//W3C//DTD SVG 1.1//EN" "http://www.w3.org/Graphics/SVG/1.1/DTD/svg11.dtd">
<!-- Creator: CorelDRAW 2017 -->
<svg xmlns="http://www.w3.org/2000/svg" xml:space="preserve" width="143mm" height="143mm" version="1.1" style="shape-rendering:geometricPrecision; text-rendering:geometricPrecision; image-rendering:optimizeQuality; fill-rule:evenodd; clip-rule:evenodd"
viewBox="0 0 14300 14300"
 xmlns:xlink="http://www.w3.org/1999/xlink">
 <defs>
  <style type="text/css">
   <![CDATA[
    .fil1 {fill:black}
    .fil3 {fill:#EF637B}
    .fil0 {fill:#FCCE51}
    .fil2 {fill:white}
   ]]>
  </style>
 </defs>
 <g id="Слой_x0020_1">
  <metadata id="CorelCorpID_0Corel-Layer"/>
  <path class="fil0" d="M10719 7715c414,534 808,1207 944,1849 136,642 15,1253 61,1637 47,384 261,539 542,689 281,150 629,294 723,423 94,128 -66,241 -626,348 -560,108 -1519,210 -2267,190 -748,-20 -1284,-162 -1545,-108 -260,54 -245,306 -527,422 -282,116 -861,98 -1521,26 -660,-72 -1401,-197 -1925,-347 -524,-150 -832,-324 -895,-573 -63,-249 120,-572 114,-859 -7,-286 -202,-536 -497,-768 -294,-233 -687,-449 -974,-685 -286,-236 -466,-493 -577,-822 -111,-329 -153,-730 -184,-1119 -31,-389 -50,-766 45,-1033 95,-267 304,-425 378,-662 74,-237 14,-552 17,-878 3,-326 70,-661 399,-913 329,-252 922,-421 1324,-537 403,-116 617,-180 878,-191 261,-11 570,30 767,-37 197,-67 283,-243 533,-304 251,-61 666,-7 908,78 241,85 308,201 473,322 165,121 427,248 755,513 329,265 724,669 967,1027 243,358 335,671 598,1025 263,354 698,751 1112,1285z"/>
  <path class="fil1" d="M5893 4887c5,-144 1,-326 -99,-508 -100,-182 -295,-365 -504,-495 -210,-130 -434,-208 -630,-189 -196,19 -363,135 -435,169 -72,34 -49,-15 -73,-106 -24,-91 -95,-224 -187,-299 -92,-75 -204,-91 -323,-73 -120,18 -247,71 -338,94 -91,23 -145,16 -49,-123 96,-139 341,-409 580,-612 239,-203 471,-340 639,-387 168,-46 270,-3 351,59 81,62 139,143 205,208 66,65 139,115 221,109 81,-6 171,-68 245,-122 74,-54 134,-100 151,-152 17,-52 -8,-108 -48,-135 -40,-26 -94,-22 -130,-9 -36,13 -54,34 -51,30 3,-4 25,-33 44,-57 19,-24 35,-44 79,-106 44,-61 115,-164 154,-257 39,-93 45,-176 2,-258 -43,-82 -135,-163 -211,-218 -76,-55 -137,-84 -225,-120 -88,-35 -202,-77 -375,-75 -173,2 -404,48 -691,170 -286,122 -628,319 -963,585 -335,267 -664,602 -886,925 -222,323 -337,632 -337,949 0,317 114,641 402,958 289,318 752,630 1200,859 447,229 878,376 1182,413 304,37 480,-35 607,-135 127,-100 203,-228 272,-356 69,-128 130,-256 167,-372 37,-117 51,-223 55,-366z"/>
  <path class="fil2" d="M8279 4234c119,86 274,211 406,296 131,85 239,131 356,155 116,25 241,28 398,71 157,43 346,124 521,233 175,109 336,245 418,405 82,160 86,343 116,492 30,148 87,262 189,386 102,124 250,258 318,448 68,190 57,436 12,620 -44,184 -122,307 -170,419 -48,113 -66,216 -70,370 -5,154 4,360 -21,628 -24,267 -81,596 -196,865 -115,269 -289,477 -528,605 -238,129 -541,178 -758,195 -218,17 -350,2 -446,32 -96,30 -157,106 -142,291 15,185 106,480 166,692 61,212 91,340 76,412 -15,72 -76,87 -202,13 -127,-74 -320,-236 -530,-531 -210,-295 -437,-722 -575,-957 -138,-235 -187,-276 -314,-325 -127,-49 -331,-106 -492,-132 -161,-26 -278,-23 -431,6 -153,28 -342,81 -533,89 -191,8 -384,-30 -545,-125 -161,-95 -289,-246 -365,-382 -76,-136 -98,-257 -133,-322 -34,-64 -80,-72 -201,-59 -121,13 -317,47 -582,11 -265,-36 -597,-142 -879,-331 -282,-189 -513,-461 -641,-700 -129,-238 -155,-443 -159,-632 -4,-189 15,-363 68,-494 53,-131 140,-217 210,-295 70,-78 123,-146 174,-306 51,-161 100,-414 130,-605 30,-191 40,-320 231,-424 191,-104 563,-183 786,-253 224,-70 299,-131 413,-240 113,-110 265,-269 420,-378 155,-110 314,-170 467,-204 153,-34 300,-41 477,-29 178,11 387,41 606,-1 220,-42 450,-155 676,-223 225,-68 444,-91 609,-78 165,13 274,62 371,111 96,48 180,96 299,182z"/>
  <g id="_1574760884736">
   <path class="fil3" d="M7805 10003c68,-1 155,9 224,43 69,34 120,90 186,138 66,48 147,86 196,153 49,67 65,162 91,298 26,136 63,313 86,447 23,134 33,225 14,284 -19,59 -68,85 -118,91 -50,6 -101,-9 -175,-100 -74,-90 -172,-256 -274,-444 -103,-187 -210,-397 -285,-540 -75,-143 -118,-220 -131,-267 -13,-47 3,-63 36,-77 32,-14 81,-26 149,-27z"/>
   <path class="fil3" d="M10608 8101c18,87 20,288 -10,511 -30,222 -93,466 -250,716 -156,250 -406,506 -659,658 -253,152 -509,201 -713,210 -204,9 -356,-21 -474,-68 -118,-47 -201,-110 -219,-179 -18,-69 28,-144 80,-217 52,-73 109,-144 203,-191 94,-47 226,-69 347,-105 121,-36 230,-84 349,-172 119,-87 247,-213 332,-338 85,-125 128,-249 177,-341 49,-92 104,-153 202,-213 98,-60 241,-119 339,-170 98,-51 153,-93 198,-128 45,-35 79,-61 97,26z"/>
   <path class="fil3" d="M5639 8212c62,54 170,186 256,268 86,82 151,115 187,177 36,62 42,153 82,242 41,88 116,174 221,227 106,54 242,76 376,82 134,6 266,-4 357,-39 91,-35 142,-93 197,-96 55,-3 114,50 217,78 104,28 252,32 366,13 115,-19 196,-62 254,-119 58,-57 92,-128 110,-166 17,-39 17,-45 85,-37 68,8 204,30 313,30 109,0 190,-22 261,-68 71,-46 132,-115 169,-210 37,-95 49,-217 45,-311 -4,-93 -24,-158 -42,-164 -17,-6 -31,47 -68,130 -37,83 -95,197 -171,277 -75,80 -166,127 -262,146 -95,19 -195,11 -266,-18 -71,-29 -114,-80 -131,-86 -17,-6 -9,33 -19,89 -10,57 -39,132 -106,190 -67,58 -173,98 -276,115 -104,16 -205,8 -299,-36 -94,-44 -182,-123 -228,-135 -47,-12 -53,43 -114,93 -61,51 -177,97 -290,112 -114,14 -225,-4 -317,-47 -91,-43 -162,-110 -201,-182 -39,-72 -45,-149 -37,-206 8,-57 30,-93 -4,-105 -35,-11 -126,3 -212,-34 -86,-37 -168,-124 -235,-226 -67,-103 -120,-220 -144,-356 -24,-136 -20,-290 32,-413 53,-123 154,-214 272,-292 118,-78 252,-143 353,-163 102,-20 171,4 207,-7 37,-11 41,-58 72,-129 31,-71 90,-166 196,-234 106,-68 258,-109 373,-105 115,4 192,53 232,89 41,37 45,61 69,32 24,-28 69,-110 150,-165 81,-56 199,-86 331,-77 132,9 278,58 409,125 131,67 247,152 319,227 72,75 100,140 118,178 17,38 23,48 26,-1 3,-49 3,-156 -43,-297 -46,-141 -137,-316 -299,-419 -162,-104 -396,-136 -579,-118 -183,18 -315,87 -398,151 -83,64 -118,123 -169,125 -51,2 -118,-53 -198,-66 -80,-13 -174,15 -222,38 -49,22 -53,39 -62,-50 -9,-88 -23,-281 -70,-394 -47,-113 -126,-145 -153,-182 -27,-37 -3,-77 52,-148 55,-71 140,-173 241,-251 101,-78 216,-133 346,-145 130,-12 274,18 380,61 106,43 173,97 218,146 46,49 70,91 114,85 44,-6 107,-61 188,-95 81,-35 181,-49 287,-35 107,14 220,57 312,128 91,71 160,171 212,281 52,111 86,232 105,307 18,74 20,100 65,111 45,10 132,4 221,28 89,24 181,79 244,141 63,62 97,131 95,224 -2,93 -41,211 -86,283 -46,72 -98,98 -154,116 -56,17 -115,25 -120,76 -5,51 44,144 59,224 15,80 -3,147 -54,203 -51,56 -134,101 -226,118 -92,17 -194,7 -277,-6 -83,-13 -148,-29 -185,-17 -37,12 -45,53 -90,93 -46,41 -129,81 -216,95 -87,14 -179,2 -269,-32 -90,-35 -180,-91 -241,-145 -61,-54 -93,-105 -113,-139 -19,-35 -25,-53 -50,-37 -24,16 -67,67 -119,113 -52,46 -113,86 -208,113 -95,26 -225,39 -354,28 -129,-10 -257,-43 -350,-84 -93,-42 -152,-92 -176,-85 -23,7 -11,72 38,146 49,74 134,157 232,209 98,52 210,72 345,60 135,-12 293,-57 395,-117 102,-60 146,-135 177,-146 30,-11 47,42 81,92 35,51 87,100 162,145 75,46 173,88 256,114 83,25 152,34 227,4 75,-29 156,-96 212,-150 56,-54 86,-94 112,-107 25,-12 46,4 74,21 28,17 65,36 138,50 73,14 183,24 300,0 118,-24 244,-83 320,-165 76,-82 103,-188 110,-275 7,-87 -5,-156 -21,-196 -16,-40 -37,-50 -22,-78 14,-28 63,-75 109,-136 46,-61 88,-136 117,-216 28,-80 43,-165 25,-263 -17,-97 -66,-207 -137,-289 -71,-82 -164,-137 -244,-164 -79,-27 -144,-27 -197,-25 -53,2 -93,6 -102,0 -8,-6 16,-22 21,-77 5,-55 -9,-148 -31,-240 -22,-91 -53,-181 -159,-264 -107,-83 -289,-160 -453,-186 -163,-25 -308,1 -394,23 -86,22 -115,41 -162,16 -48,-24 -115,-91 -230,-148 -116,-57 -280,-104 -434,-110 -154,-6 -298,28 -417,92 -119,64 -212,157 -280,259 -68,102 -111,211 -131,284 -20,73 -18,110 -48,91 -29,-18 -90,-91 -175,-162 -84,-71 -192,-140 -319,-190 -127,-50 -273,-80 -396,-91 -123,-11 -222,-3 -321,29 -98,32 -196,89 -257,145 -61,56 -85,111 -100,159 -15,49 -21,91 -54,92 -32,1 -91,-40 -166,-60 -75,-20 -166,-20 -256,11 -89,31 -177,94 -241,162 -64,68 -105,141 -132,232 -27,91 -42,201 -46,281 -4,80 2,131 10,164 8,34 18,50 -13,50 -31,0 -105,-16 -186,-18 -81,-2 -171,10 -262,47 -91,37 -185,97 -243,165 -58,68 -80,143 -92,235 -12,91 -14,199 -4,279 10,80 33,133 47,161 14,28 20,32 -1,54 -21,21 -70,60 -98,116 -28,56 -37,129 -39,204 -2,75 2,152 28,220 26,68 75,127 134,172 59,45 128,75 214,98 86,23 190,40 263,46 73,6 116,2 137,7 21,5 21,19 52,65 30,46 91,123 176,176 84,53 192,81 309,103 117,21 243,36 372,1 129,-35 261,-118 334,-170 73,-52 87,-72 65,-9 -22,63 -81,209 -179,309 -97,99 -233,152 -401,192 -168,40 -366,66 -588,41 -221,-25 -465,-103 -664,-199 -199,-96 -353,-212 -477,-358 -124,-146 -217,-323 -277,-480 -60,-157 -86,-295 -86,-456 0,-160 26,-343 86,-474 60,-131 153,-210 214,-271 61,-61 89,-104 105,-199 15,-95 17,-244 39,-358 21,-115 62,-196 123,-284 61,-88 142,-184 238,-256 95,-72 205,-121 323,-158 118,-38 244,-64 330,-92 86,-28 133,-59 180,-104 47,-45 93,-104 162,-207 69,-104 160,-252 301,-365 141,-114 332,-193 515,-246 183,-53 357,-79 523,-74 165,5 322,42 430,58 109,16 170,12 263,-27 93,-40 219,-115 372,-165 152,-50 331,-76 526,-73 195,3 406,35 594,113 188,79 352,205 507,297 154,92 298,151 456,182 157,30 328,32 506,94 178,62 362,184 503,322 140,138 236,292 285,431 50,139 54,263 90,378 37,115 106,220 174,320 68,99 135,193 175,333 40,140 53,327 47,501 -6,175 -31,337 -89,478 -58,141 -150,261 -284,354 -134,93 -311,160 -428,226 -118,66 -177,131 -218,209 -42,78 -66,170 -123,277 -57,108 -146,231 -266,322 -120,90 -270,147 -415,183 -145,36 -285,50 -392,102 -107,52 -180,141 -259,231 -79,90 -164,182 -284,235 -120,53 -274,67 -421,55 -147,-12 -287,-51 -404,-89 -117,-39 -210,-77 -317,-84 -107,-7 -226,17 -326,43 -99,25 -179,52 -276,53 -97,1 -213,-23 -321,-54 -108,-30 -207,-67 -292,-136 -85,-69 -156,-171 -197,-274 -41,-104 -51,-209 -42,-343 9,-134 38,-296 82,-431 45,-135 106,-243 144,-309 39,-66 55,-90 117,-37z"/>
   <path class="fil3" d="M5916 5433c99,43 223,114 287,173 64,59 68,106 107,134 39,28 112,39 183,60 71,21 140,54 197,119 57,65 102,162 124,245 22,82 22,149 1,185 -21,36 -64,40 -118,76 -54,37 -119,106 -152,178 -34,72 -36,147 -68,189 -32,42 -95,50 -187,61 -91,11 -211,25 -333,60 -122,35 -246,89 -340,192 -94,103 -159,253 -185,385 -25,132 -11,246 28,334 40,88 105,151 103,195 -2,44 -71,68 -132,102 -61,34 -114,76 -176,132 -62,56 -133,125 -209,176 -76,51 -157,83 -237,94 -79,11 -156,1 -241,-15 -84,-16 -176,-39 -248,-78 -72,-40 -125,-96 -163,-157 -39,-61 -63,-126 -101,-146 -38,-20 -88,4 -179,14 -90,10 -220,6 -317,-67 -96,-73 -159,-215 -177,-317 -17,-102 11,-162 31,-207 20,-45 32,-73 34,-136 1,-63 -9,-160 -15,-252 -6,-91 -8,-177 16,-251 24,-74 75,-137 131,-182 56,-45 117,-71 198,-84 81,-13 183,-13 261,9 78,22 133,67 170,113 37,46 55,92 81,85 26,-7 61,-68 118,-104 57,-36 136,-46 224,-21 88,24 186,83 258,152 72,69 119,148 138,237 19,88 11,186 -18,268 -29,82 -80,149 -152,187 -72,38 -165,46 -262,14 -96,-31 -196,-103 -267,-153 -71,-51 -114,-81 -133,-84 -19,-3 -15,21 15,79 30,58 87,149 145,222 58,73 117,128 203,164 86,37 200,55 308,-4 108,-59 209,-195 267,-333 58,-138 72,-278 37,-401 -36,-123 -121,-228 -226,-311 -106,-82 -231,-141 -336,-169 -105,-27 -188,-23 -249,-12 -61,11 -100,29 -120,10 -20,-19 -22,-76 -4,-159 18,-83 57,-193 108,-280 51,-87 114,-152 181,-202 67,-50 138,-84 213,-103 75,-18 154,-20 198,-21 44,-1 52,-1 85,-50 34,-49 92,-146 161,-215 69,-69 148,-110 230,-138 82,-28 168,-45 248,-46 80,-1 155,13 255,56z"/>
  </g>
  <path class="fil1" d="M9289 6576c37,-139 92,-312 240,-459 147,-146 386,-266 625,-331 238,-65 475,-76 658,-2 182,74 309,233 369,286 59,53 51,0 100,-81 49,-80 155,-188 264,-233 109,-46 221,-29 331,22 110,52 217,139 297,187 81,48 135,56 82,-104 -52,-160 -211,-489 -382,-752 -171,-263 -355,-460 -502,-553 -147,-92 -258,-80 -353,-43 -95,37 -174,97 -256,141 -82,44 -166,71 -243,42 -76,-29 -144,-114 -200,-187 -56,-73 -100,-134 -102,-189 -2,-54 38,-102 84,-116 46,-14 96,6 127,28 31,22 42,48 40,43 -1,-4 -15,-39 -26,-68 -11,-29 -21,-53 -45,-124 -24,-71 -64,-190 -75,-290 -11,-100 7,-181 71,-248 65,-66 176,-118 265,-149 89,-31 156,-42 250,-51 94,-9 216,-16 381,35 165,51 374,161 614,360 240,198 511,484 756,835 245,351 465,766 586,1139 121,373 143,702 53,1006 -90,304 -291,582 -659,804 -367,223 -901,390 -1395,482 -494,92 -949,110 -1250,60 -302,-51 -451,-171 -543,-303 -93,-132 -129,-276 -159,-419 -30,-142 -52,-282 -54,-404 -2,-123 15,-228 51,-367z"/>
  <path class="fil1" d="M7010 2805c36,-108 6,-660 -23,-1029 -28,-369 -55,-554 -100,-649 -45,-95 -110,-98 -182,-87 -72,11 -151,38 -142,240 9,202 108,581 208,938 100,357 202,694 238,586z"/>
  <path class="fil1" d="M7471 2759c-21,-138 -21,-516 9,-734 30,-218 91,-274 142,-293 51,-19 93,0 123,40 30,40 49,100 19,257 -30,157 -110,410 -170,588 -61,178 -102,280 -123,142z"/>
  <path class="fil1" d="M11406 8695c110,-23 389,-53 624,-66 235,-13 424,-9 530,36 106,45 129,132 89,165 -40,32 -142,9 -357,-13 -215,-22 -544,-45 -739,-64 -195,-19 -256,-34 -146,-57z"/>
  <path class="fil1" d="M11326 9092c102,25 255,64 381,105 126,41 224,82 272,127 48,44 46,92 8,102 -39,10 -114,-16 -259,-78 -145,-61 -358,-158 -471,-214 -113,-56 -124,-71 -104,-74 20,-3 71,7 173,31z"/>
  <path class="fil1" d="M2317 6140c-211,-99 -594,-271 -795,-335 -201,-63 -219,-17 -235,23 -16,40 -30,74 -31,106 0,31 13,59 161,102 148,43 431,101 638,148 207,47 339,83 418,98 79,16 105,11 99,-4 -6,-15 -45,-40 -255,-138z"/>
  <path class="fil1" d="M9106 3539c87,-148 291,-477 450,-658 159,-182 272,-216 350,-199 78,17 119,85 76,166 -44,81 -172,176 -320,295 -148,119 -314,263 -414,346 -100,83 -134,106 -166,134 -32,28 -62,62 25,-85z"/>
 </g>
</svg>
